# Blender v2.71 (sub 0) OBJ File: 'box.blend'
# www.blender.org
mtllib box.mtl
o Cube
v 1.000000 -1.000000 -1.000000
v 1.000000 -1.000000 1.000000
v -1.000000 -1.000000 1.000000
v -1.000000 -1.000000 -1.000000
v 1.000000 1.000000 -0.999999
v 0.999999 1.000000 1.000001
v -1.000000 1.000000 1.000000
v -1.000000 1.000000 -1.000000
v 1.000000 -1.000000 -1.000000
v 1.000000 -1.000000 -1.000000
v 1.000000 -1.000000 1.000000
v 1.000000 -1.000000 1.000000
v -1.000000 -1.000000 -1.000000
v -1.000000 -1.000000 -1.000000
v 1.000000 1.000000 -0.999999
v 1.000000 1.000000 -0.999999
v -1.000000 -1.000000 1.000000
v -1.000000 -1.000000 1.000000
v 0.999999 1.000000 1.000001
v 0.999999 1.000000 1.000001
v -1.000000 1.000000 1.000000
v -1.000000 1.000000 1.000000
v -1.000000 1.000000 -1.000000
v -1.000000 1.000000 -1.000000
vt 1.000000 1.000000
vt 0.000000 1.000000
vt 0.000000 0.000000
vt 1.000000 0.000000
vn 0.000000 -1.000000 0.000000
vn 0.000000 1.000000 0.000000
vn 1.000000 -0.000000 0.000000
vn -0.000000 -0.000000 1.000000
vn -1.000000 -0.000000 -0.000000
vn 0.000000 0.000000 -1.000000
usemtl Material
s off
f 2/1/1 3/2/1 4/3/1
f 23/4/2 21/1/2 19/2/2
f 9/4/3 5/1/3 6/2/3
f 12/4/4 20/1/4 7/2/4
f 22/1/5 8/2/5 13/3/5
f 10/3/6 14/4/6 24/1/6
f 1/4/1 2/1/1 4/3/1
f 15/3/2 23/4/2 19/2/2
f 11/3/3 9/4/3 6/2/3
f 17/3/4 12/4/4 7/2/4
f 18/4/5 22/1/5 13/3/5
f 16/2/6 10/3/6 24/1/6
